<svg xmlns="http://www.w3.org/2000/svg" width="67.611" height="59.234" viewBox="0 0 67.611 59.234">
  <g id="Grupo_9" data-name="Grupo 9" transform="translate(-56.195 -20)">
    <path id="Caminho_7" data-name="Caminho 7" d="M1235.732,348.748h-1.342V338.56h1.342Z" transform="translate(-1120.24 -294.847)" fill="#818080"/>
    <path id="Caminho_8" data-name="Caminho 8" d="M1201.647,382.84H1191.46V381.5h10.187Z" transform="translate(-1081.732 -333.363)" fill="#818080"/>
    <path id="Caminho_9" data-name="Caminho 9" d="M673.15,401.652h46.771V383.04H689.776a16.645,16.645,0,0,0-16.626,16.626v1.986Zm48.1,1.33H671.82v-3.316a17.976,17.976,0,0,1,17.956-17.956h31.474Z" transform="translate(-615.625 -333.552)" fill="#818080"/>
    <path id="Caminho_10" data-name="Caminho 10" d="M946.48,156.481h18.612V126.336a16.645,16.645,0,0,0-16.626-16.626H946.48Zm19.942,1.33H945.15V108.38h3.316a17.976,17.976,0,0,1,17.956,17.956Z" transform="translate(-860.797 -88.38)" fill="#818080"/>
    <path id="Caminho_11" data-name="Caminho 11" d="M849.611,251.641h18.612V221.5A16.645,16.645,0,0,0,851.6,204.87h-1.986Zm19.942,1.33H848.28V203.54H851.6A17.977,17.977,0,0,1,869.554,221.5Z" transform="translate(-773.906 -173.737)" fill="#818080"/>
    <path id="Caminho_12" data-name="Caminho 12" d="M849.611,496.813h30.144a16.645,16.645,0,0,0,16.626-16.626V478.2H849.611Zm30.144,1.33H848.28V476.87h49.432v3.316A17.976,17.976,0,0,1,879.756,498.142Z" transform="translate(-773.906 -418.908)" fill="#818080"/>
  </g>
</svg>
