<svg xmlns="http://www.w3.org/2000/svg" width="120" height="123.453" viewBox="0 0 120 123.453">
  <g id="Camada_x0020_1" transform="translate(-417.55 -108.38)">
    <g id="_1801609673728" transform="translate(417.55 108.38)">
      <path id="Caminho_1" data-name="Caminho 1" d="M429.12,841.663q-.748-3.475-2.2-10.382-.7,3.475-2.2,10.382Zm7.171,9.634h-5.1q-.352-1.539-.967-4.531h-6.555q-.352,1.5-.968,4.531H417.55q1.848-8.754,5.587-26.264.4-1.981,1.232-5.983h5.1Q431.759,829.785,436.291,851.3Z" transform="translate(-417.55 -745.837)" fill="#bfa37d"/>
      <path id="Caminho_2" data-name="Caminho 2" d="M639.52,834.766a2.12,2.12,0,0,0-.132-.748,2.347,2.347,0,0,0-.44-.616,1.5,1.5,0,0,0-.616-.44,2.1,2.1,0,0,0-.748-.132h-6.511v12.934h6.511a2.5,2.5,0,0,0,.792-.132,1.726,1.726,0,0,0,.616-.4,2.183,2.183,0,0,0,.4-.659,2.505,2.505,0,0,0,.176-.7v-.044h-.044Zm-8.447-11v3.915h6.511a1.65,1.65,0,0,0,.748-.176,1.7,1.7,0,0,0,.616-.4,2.164,2.164,0,0,0,.44-.659,2.187,2.187,0,0,0,0-1.5,2.345,2.345,0,0,0-.44-.616,1.5,1.5,0,0,0-.616-.44,2.1,2.1,0,0,0-.748-.132Zm11.967,6.466a8.341,8.341,0,0,1,1.187,2.112,7.586,7.586,0,0,1,.4,2.42v9.063a7.059,7.059,0,0,1-7.039,7.083H625.97V818.62h11.614a7.135,7.135,0,0,1,7.084,7.084,6.67,6.67,0,0,1-.441,2.419A6.246,6.246,0,0,1,643.04,830.234Z" transform="translate(-604.499 -745.452)" fill="#bfa37d"/>
      <path id="Caminho_3" data-name="Caminho 3" d="M906.911,819.48h4.971v32.292h-5.147V826.563q-1.409,1.365-4.224,4.135-1.408-1.408-4.223-4.135v25.209H893.14V819.48h4.972q1.451,1.408,4.4,4.311Q904.007,822.339,906.911,819.48Z" transform="translate(-844.145 -746.223)" fill="#bfa37d"/>
      <path id="Caminho_4" data-name="Caminho 4" d="M1112.4,841.663q-.748-3.475-2.2-10.382-.7,3.475-2.2,10.382Zm7.171,9.634h-5.1q-.354-1.539-.968-4.531h-6.555q-.352,1.5-.967,4.531h-5.148q1.848-8.754,5.588-26.264.4-1.981,1.231-5.983h5.1Q1115.039,829.785,1119.571,851.3Z" transform="translate(-1030.439 -745.837)" fill="#bfa37d"/>
      <path id="Caminho_5" data-name="Caminho 5" d="M1315.718,819.05v32.291h-5.148V819.05Z" transform="translate(-1218.572 -745.837)" fill="#bfa37d"/>
      <path id="Caminho_6" data-name="Caminho 6" d="M1414.738,818.62h4.84v5.148h-4.84a2.1,2.1,0,0,0-.748.132,1.853,1.853,0,0,0-.659.44,2.163,2.163,0,0,0-.4.572,1.665,1.665,0,0,0-.132.659v18.7h-.043a6.835,6.835,0,0,1-2.244,4.707,6.68,6.68,0,0,1-4.84,1.98h-4.8v-5.148h4.8a2.5,2.5,0,0,0,.792-.131,2.351,2.351,0,0,0,.616-.441,1.8,1.8,0,0,0,.4-.572,1.555,1.555,0,0,0,.176-.7V825.307a7.071,7.071,0,0,1,7.083-6.687Z" transform="translate(-1299.578 -745.452)" fill="#bfa37d"/>
      <path id="Caminho_7" data-name="Caminho 7" d="M1235.732,348.748h-1.342V338.56h1.342Z" transform="translate(-1150.24 -314.847)" fill="#818080"/>
      <path id="Caminho_8" data-name="Caminho 8" d="M1201.647,382.84H1191.46V381.5h10.187Z" transform="translate(-1111.732 -353.363)" fill="#818080"/>
      <path id="Caminho_9" data-name="Caminho 9" d="M673.15,401.652h46.771V383.04H689.776a16.645,16.645,0,0,0-16.626,16.626v1.986Zm48.1,1.33H671.82v-3.316a17.976,17.976,0,0,1,17.956-17.956h31.474Z" transform="translate(-645.625 -353.552)" fill="#818080"/>
      <path id="Caminho_10" data-name="Caminho 10" d="M946.48,156.481h18.612V126.336a16.645,16.645,0,0,0-16.626-16.626H946.48Zm19.942,1.33H945.15V108.38h3.316a17.976,17.976,0,0,1,17.956,17.956Z" transform="translate(-890.797 -108.38)" fill="#818080"/>
      <path id="Caminho_11" data-name="Caminho 11" d="M849.611,251.641h18.612V221.5A16.645,16.645,0,0,0,851.6,204.87h-1.986Zm19.942,1.33H848.28V203.54H851.6A17.977,17.977,0,0,1,869.554,221.5Z" transform="translate(-803.906 -193.737)" fill="#818080"/>
      <path id="Caminho_12" data-name="Caminho 12" d="M849.611,496.813h30.144a16.645,16.645,0,0,0,16.626-16.626V478.2H849.611Zm30.144,1.33H848.28V476.87h49.432v3.316A17.976,17.976,0,0,1,879.756,498.142Z" transform="translate(-803.906 -438.908)" fill="#818080"/>
      <path id="Caminho_13" data-name="Caminho 13" d="M527.52,1246.264v-3.744h1.143v3.7c0,1.207.622,1.858,1.644,1.858s1.635-.614,1.635-1.812v-3.744h1.143v3.688a2.6,2.6,0,0,1-2.8,2.918A2.564,2.564,0,0,1,527.52,1246.264Z" transform="translate(-516.191 -1125.682)" fill="#fff"/>
      <path id="Caminho_14" data-name="Caminho 14" d="M646.474,1245.744c.817,0,1.337-.428,1.337-1.087v-.019c0-.7-.5-1.078-1.346-1.078H644.8v2.183Zm-2.814-3.224h2.9a2.62,2.62,0,0,1,1.877.65,1.97,1.97,0,0,1,.539,1.4v.018a1.953,1.953,0,0,1-1.552,1.97l1.755,2.461H647.83l-1.6-2.266H644.8v2.266H643.66v-6.5Z" transform="translate(-620.366 -1125.682)" fill="#fff"/>
      <path id="Caminho_15" data-name="Caminho 15" d="M758.758,1248.01c.781,0,1.255-.306,1.255-.891v-.019c0-.548-.437-.874-1.338-.874h-1.811v1.783Zm-.334-2.75c.733,0,1.226-.287,1.226-.882v-.018c0-.512-.409-.827-1.142-.827h-1.644v1.728Zm-2.685-2.74h2.917a2.344,2.344,0,0,1,1.7.576,1.455,1.455,0,0,1,.437,1.078v.019a1.548,1.548,0,0,1-.928,1.449,1.594,1.594,0,0,1,1.291,1.579v.018c0,1.161-.957,1.783-2.406,1.783H755.74Z" transform="translate(-720.9 -1125.682)" fill="#fff"/>
      <path id="Caminho_16" data-name="Caminho 16" d="M866.816,1246.037l-1.124-2.6-1.115,2.6Zm-1.635-3.967h1.059l2.862,6.549h-1.208l-.659-1.57h-3.075l-.669,1.57h-1.17Z" transform="translate(-816.5 -1125.278)" fill="#fff"/>
      <path id="Caminho_17" data-name="Caminho 17" d="M985.85,1242.52h1.059l3.484,4.5v-4.5h1.124v6.5h-.957l-3.586-4.625v4.625H985.85Z" transform="translate(-927.304 -1125.682)" fill="#fff"/>
      <path id="Caminho_18" data-name="Caminho 18" d="M1104.61,1242.52h1.142v6.5h-1.142Z" transform="translate(-1033.829 -1125.682)" fill="#fff"/>
      <path id="Caminho_19" data-name="Caminho 19" d="M1175.21,1247.269l.687-.818a3,3,0,0,0,2.053.846c.706,0,1.152-.326,1.152-.818v-.019c0-.465-.261-.715-1.468-.994-1.384-.334-2.164-.743-2.164-1.941v-.018a1.989,1.989,0,0,1,2.22-1.886,3.6,3.6,0,0,1,2.36.818l-.613.863a2.954,2.954,0,0,0-1.766-.669c-.669,0-1.059.343-1.059.771v.019c0,.5.3.725,1.542,1.022,1.375.335,2.09.827,2.09,1.9v.018c0,1.217-.957,1.941-2.322,1.941A4.006,4.006,0,0,1,1175.21,1247.269Z" transform="translate(-1097.156 -1124.874)" fill="#fff"/>
      <path id="Caminho_20" data-name="Caminho 20" d="M1284.04,1242.52h1.218l1.978,3.075,1.979-3.075h1.217v6.5h-1.142v-4.662l-2.053,3.065h-.037l-2.035-3.046v4.644h-1.124Z" transform="translate(-1194.775 -1125.682)" fill="#fff"/>
      <path id="Caminho_21" data-name="Caminho 21" d="M1412,1244.821v-.019a2.228,2.228,0,0,0-2.211-2.313,2.2,2.2,0,0,0-2.192,2.294v.018a2.228,2.228,0,0,0,2.211,2.314A2.2,2.2,0,0,0,1412,1244.821Zm-5.6,0v-.019a3.4,3.4,0,0,1,6.8-.018v.018a3.4,3.4,0,0,1-6.8.019Z" transform="translate(-1304.529 -1124.713)" fill="#fff"/>
    </g>
  </g>
</svg>
